<svg fill="none" height="322" viewBox="0 0 420 322" width="420" xmlns="http://www.w3.org/2000/svg" xmlns:xlink="http://www.w3.org/1999/xlink"><clipPath id="a"><path d="m0 0h420v322h-420z"/></clipPath><g clip-path="url(#a)"><path d="m96.7088 222.843 32.5182-51.024-72.8251-46.206-37.6086 59.012 60.2352 38.218z" fill="#f0f0f0"/><path d="m142.79 238.76h-80.5484v-16.178h80.5484zm-79.5023-1.044h78.4553v-14.09h-78.4553z" fill="#3f3d56"/><g fill="#f81"><path d="m132.852 235.89c2.888 0 5.23-2.337 5.23-5.219s-2.342-5.219-5.23-5.219c-2.889 0-5.231 2.337-5.231 5.219s2.342 5.219 5.231 5.219z"/><path d="m118.207 235.89c2.888 0 5.23-2.337 5.23-5.219s-2.342-5.219-5.23-5.219c-2.889 0-5.231 2.337-5.231 5.219s2.342 5.219 5.231 5.219z"/><path d="m103.562 235.89c2.888 0 5.23-2.337 5.23-5.219s-2.342-5.219-5.23-5.219c-2.889 0-5.2307 2.337-5.2307 5.219s2.3417 5.219 5.2307 5.219z"/><path d="m88.9166 235.89c2.8886 0 5.2303-2.337 5.2303-5.219s-2.3417-5.219-5.2303-5.219c-2.8887 0-5.2304 2.337-5.2304 5.219s2.3417 5.219 5.2304 5.219z"/><path d="m74.2715 235.89c2.8886 0 5.2304-2.337 5.2304-5.219s-2.3418-5.219-5.2304-5.219c-2.8887 0-5.2304 2.337-5.2304 5.219s2.3417 5.219 5.2304 5.219z"/></g><path d="m238.506 58.9725v-39.6629h19.875v-19.3096h-97.285v97.0697h83.163v-9.4907c0-1.7692.349-3.521 1.028-5.1555.678-1.6345 1.673-3.1197 2.927-4.3707 1.253-1.251 2.742-2.2433 4.38-2.9203 1.638-.6771 3.394-1.0255 5.167-1.0255h.62v-15.1345z" fill="#f0f0f0"/><path d="m346.252 250.502h-64.857v13.569h64.857z" fill="#f81"/><path d="m360.374 183.702h-95.193v12.525h95.193z" fill="#f0f0f0"/><path d="m406.924 320.956h-406.924v1.044h406.924z" fill="#3f3d56"/><path d="m376.685 322h-118.924c-3.718-.004-7.283-1.48-9.912-4.103-2.63-2.624-4.109-6.181-4.113-9.891v-220.427c.004-3.7101 1.483-7.2671 4.112-9.8905 2.63-2.6235 6.195-4.0992 9.913-4.1034h118.924c3.718.0042 7.283 1.4799 9.912 4.1034 2.63 2.6234 4.109 6.1804 4.113 9.8905v220.427c-.004 3.71-1.483 7.267-4.113 9.891-2.629 2.623-6.194 4.099-9.912 4.103zm-118.924-247.3712c-3.441.0039-6.74 1.3696-9.173 3.7974s-3.802 5.7194-3.806 9.1528v220.427c.004 3.433 1.373 6.725 3.806 9.153s5.732 3.793 9.173 3.797h118.924c3.441-.004 6.74-1.369 9.173-3.797s3.802-5.72 3.806-9.153v-220.427c-.004-3.4334-1.373-6.725-3.806-9.1528s-5.732-3.7935-9.173-3.7974z" fill="#3f3d56"/><path d="m303.101 84.0227c-.621 0-1.228-.1837-1.744-.5277-.516-.3441-.918-.8331-1.155-1.4053-.238-.5722-.3-1.2018-.179-1.8092s.42-1.1653.859-1.6032c.439-.438.998-.7362 1.607-.857.608-.1208 1.239-.0588 1.813.1782.573.237 1.063.6383 1.408 1.1533.345.5149.529 1.1203.529 1.7396-.001.8302-.332 1.6261-.92 2.2132-.588.587-1.386.9172-2.218.9181zm0-5.2188c-.414 0-.818.1224-1.162.3518-.345.2294-.613.5554-.771.9369-.158.3814-.2.8011-.119 1.2061.081.4049.28.7769.572 1.0688.293.292.666.4908 1.072.5713.406.0806.826.0392 1.209-.1188.382-.158.709-.4255.938-.7688.23-.3433.353-.7469.353-1.1598-.001-.5535-.221-1.0841-.613-1.4754-.393-.3914-.924-.6115-1.479-.6121z" fill="#3f3d56"/><path d="m333.96 80.3695h-23.014v1.0438h23.014z" fill="#3f3d56"/><path d="m381.295 88.7196v41.7504c-11.097 0-21.74-4.399-29.587-12.229s-12.255-18.4486-12.256-29.5214z" fill="#f81"/><path d="m381.818 307.909h-129.19v-219.7113h129.19zm-128.144-1.043h127.098v-217.6245h-127.098z" fill="#3f3d56"/><path d="m350.959 127.861c7.799 0 14.122-6.309 14.122-14.091s-6.323-14.0909-14.122-14.0909-14.122 6.3089-14.122 14.0909 6.323 14.091 14.122 14.091z" fill="#000" opacity=".1"/><path d="m348.867 129.426c7.799 0 14.122-6.308 14.122-14.09 0-7.783-6.323-14.091-14.122-14.091-7.8 0-14.122 6.308-14.122 14.091 0 7.782 6.322 14.09 14.122 14.09z" fill="#f81"/><path d="m278.257 97.0697h-19.876v7.3063h19.876z" fill="#3f3d56"/><path d="m289.24 166.48h-19.875v7.306h19.875z" fill="#3f3d56"/><path d="m365.604 193.618h-96.239v-13.569h96.239zm-95.193-1.044h94.147v-11.482h-94.147z" fill="#3f3d56"/><path d="m360.374 223.365h-95.193v12.525h95.193z" fill="#f0f0f0"/><path d="m289.24 206.143h-19.875v7.306h19.875z" fill="#3f3d56"/><path d="m365.604 233.28h-96.239v-13.568h96.239zm-95.193-1.043h94.147v-11.482h-94.147z" fill="#3f3d56"/><path d="m350.436 260.94h-65.903v-14.613h65.903zm-64.857-1.044h63.811v-12.525h-63.811z" fill="#3f3d56"/><path d="m362.989 188.399c0 1.074-.333 2.122-.952 3.001s-1.495 1.546-2.509 1.909c-1.013.364-2.114.407-3.152.123-1.039-.284-1.964-.881-2.65-1.709l-.005-.005c-.5-.605-.857-1.315-1.044-2.077-.188-.762-.2-1.556-.038-2.323.163-.767.497-1.488.977-2.109.481-.621 1.095-1.125 1.798-1.477.703-.351 1.476-.539 2.262-.551.786-.013 1.564.152 2.277.482.714.329 1.343.815 1.843 1.421.499.606.855 1.316 1.041 2.078v.002c.001 0 .001.001.002.002 0 0 .001 0 .001.001h.002c.097.404.146.817.147 1.232z" fill="#f81"/><path d="m362.989 188.399c0 1.074-.333 2.122-.952 3.001s-1.495 1.546-2.509 1.909c-1.013.364-2.114.407-3.152.123-1.039-.284-1.964-.881-2.65-1.709l-.005-.005c-.097-.404-.146-.817-.147-1.232 0-1.074.333-2.122.952-3.001s1.495-1.546 2.509-1.91c1.013-.363 2.114-.406 3.152-.122 1.039.284 1.964.881 2.65 1.709v.002c.001.001.001.001.002.002 0 0 .001 0 .001.001h.002c.097.404.146.817.147 1.232z" fill="#000" opacity=".1"/><path d="m359.851 196.749c2.888 0 5.23-2.337 5.23-5.219s-2.342-5.219-5.23-5.219c-2.889 0-5.231 2.337-5.231 5.219s2.342 5.219 5.231 5.219z" fill="#f81"/><path d="m362.989 228.062c0 1.074-.333 2.122-.952 3.001s-1.495 1.546-2.509 1.909c-1.013.364-2.114.407-3.152.123-1.039-.284-1.964-.881-2.65-1.709l-.005-.005c-.5-.605-.857-1.315-1.044-2.077-.188-.762-.2-1.556-.038-2.323.163-.767.497-1.488.977-2.109.481-.621 1.095-1.125 1.798-1.477.703-.351 1.476-.54 2.262-.552s1.564.153 2.277.483c.714.329 1.343.815 1.843 1.421.499.606.855 1.316 1.041 2.078v.002c.001 0 .001.001.002.001 0 .001.001.001.001.002h.002c.097.403.146.817.147 1.232z" fill="#f81"/><path d="m362.989 228.062c0 1.074-.333 2.122-.952 3.001s-1.495 1.546-2.509 1.909c-1.013.364-2.114.407-3.152.123-1.039-.284-1.964-.881-2.65-1.709l-.005-.005c-.097-.404-.146-.817-.147-1.232 0-1.074.333-2.122.952-3.001s1.495-1.546 2.509-1.91c1.013-.363 2.114-.406 3.152-.122 1.039.284 1.964.881 2.65 1.709v.002c.001 0 .001.001.002.001 0 .001.001.001.001.002h.002c.097.403.146.817.147 1.232z" fill="#000" opacity=".1"/><path d="m359.851 236.412c2.888 0 5.23-2.337 5.23-5.219s-2.342-5.219-5.23-5.219c-2.889 0-5.231 2.337-5.231 5.219s2.342 5.219 5.231 5.219z" fill="#f81"/><path d="m271.98 25.0502h-27.198v27.1378h27.198z" fill="#f0f0f0"/><path d="m350.959 44.8817c-1.241 0-2.455-.3673-3.487-1.0554-1.032-.6882-1.837-1.6663-2.312-2.8106s-.599-2.4035-.357-3.6183c.242-1.2149.84-2.3307 1.718-3.2066.878-.8758 1.996-1.4723 3.213-1.7139 1.218-.2416 2.48-.1176 3.627.3564s2.127 1.2767 2.817 2.3065c.689 1.0299 1.057 2.2407 1.057 3.4793-.002 1.6604-.663 3.2522-1.84 4.4263-1.177 1.174-2.772 1.8344-4.436 1.8363zm0-11.4814c-1.035 0-2.046.3061-2.906.8796-.86.5734-1.53 1.3885-1.926 2.3421s-.5 2.0029-.298 3.0153c.202 1.0123.7 1.9422 1.431 2.6721.732.7298 1.664 1.2269 2.678 1.4282 1.015.2014 2.067.0981 3.022-.2969.956-.395 1.773-1.0639 2.348-1.9222.575-.8582.881-1.8672.881-2.8994-.001-1.3836-.553-2.7101-1.533-3.6885-.981-.9783-2.31-1.5287-3.697-1.5303z" fill="#3f3d56"/><path d="m212.877 132.036h-13.599v-13.569h13.599zm-12.553-1.044h11.507v-11.481h-11.507z" fill="#3f3d56"/><path d="m420 233.28h-13.599v-13.568h13.599zm-12.553-1.043h11.507v-11.482h-11.507z" fill="#3f3d56"/><path d="m151.683 142.299 2.333 1.254 7.941 4.271 12.82 6.891 7.471-13.83c.704-1.3 1.143-2.725 1.294-4.194.151-1.47.01-2.954-.415-4.369-.424-1.415-1.125-2.732-2.06-3.877-.936-1.145-2.089-2.094-3.393-2.793-2.786-1.501-5.978-2.081-9.115-1.657-3.138.425-6.06 1.833-8.344 4.02l-.004.004c-1.124 1.078-2.073 2.323-2.812 3.692z" fill="#2f2e41"/><path d="m186.672 283.348-1.566 17.19-5.873.781-3.916-19.534z" fill="#ffb8b8"/><path d="m177.667 301.32s7.439-3.907 9.006-.782c0 0-1.175 9.377 3.524 10.549 4.698 1.172 6.656 9.377 0 10.158-6.657.781-10.964-1.563-13.313-1.563-2.35 0 0-8.204 0-8.204z" fill="#2f2e41"/><path d="m139.294 283.348 1.566 17.19 5.873.781 3.916-19.534z" fill="#ffb8b8"/><path d="m148.299 301.32s-7.439-3.907-9.005-.782c0 0 1.174 9.377-3.525 10.549-4.698 1.172-6.656 9.377 0 10.158 6.657.781 10.964-1.563 13.314-1.563 2.349 0 0-8.204 0-8.204z" fill="#2f2e41"/><path d="m171.402 145.433c5.622 0 10.18-4.548 10.18-10.158 0-5.611-4.558-10.159-10.18-10.159-5.623 0-10.181 4.548-10.181 10.159 0 5.61 4.558 10.158 10.181 10.158z" fill="#ffb8b8"/><path d="m138.902 155.2 8.223 12.893 9.789-.781 16.054 1.172s1.515-3.024 2.753-5.966c.677-1.469 1.198-3.006 1.554-4.583.392-2.735-5.09-5.47-5.09-5.47s-.216-.039-.576-.125c-.478-.113-1.214-.301-2.02-.574-1.821-.618-4.01-1.665-4.452-3.208-.784-2.735 5.09-6.642 5.09-6.642l-7.048-6.641s-6.261 8.677-13.865 10.654c-.441.116-.888.207-1.34.273-.023.004-.043.008-.066.012-8.223 1.172-9.006 8.986-9.006 8.986z" fill="#ffb8b8"/><path d="m143.209 151.684-4.307 3.516s-3.524 16.8-2.349 21.488c1.174 4.688-.392 8.986-.392 9.767 0 .782-3.524 30.084-3.524 30.084s-7.048 15.628.392 14.065c7.439-1.563 4.698-17.191 4.698-17.191l9.006-27.348v-23.051z" fill="#ffb8b8"/><path d="m174.143 154.809 3.132 2.344 1.566 32.819 11.747 28.13s8.615 13.674 3.133 14.065c-5.482.39-9.006-14.065-9.006-14.065l-10.572-26.958-1.567-26.177z" fill="#ffb8b8"/><path d="m154.564 157.153s7.832 5.47 20.362 3.517c0 0 3.524 7.032 1.566 10.939s2.349 13.284 3.132 14.456 9.789 25.395 12.922 51.571c3.132 26.177 11.747 44.149 4.307 46.493s-22.71 5.079-24.277 2.735c-1.566-2.344-3.915-60.558-3.915-60.558l-4.308 22.27s5.874 37.897 1.567 38.679c-4.307.781-31.325-1.563-30.542-6.251.783-4.689 8.614-29.303 8.614-29.303s-.391-49.227 7.44-58.604c0 0 3.132-5.079-1.175-11.721-4.307-6.641-3.915-17.19-3.915-17.19s3.132 0 8.222-7.033z" fill="#2f2e41"/><path d="m147.974 146.202 6.591 14.468 1.566-.782-6.818-13.959z" fill="#2f2e41"/><path d="m169.589 151.766 4.945 10.857 1.187-.105-.404-1.848-3.708-8.33c-.478-.113-1.214-.301-2.02-.574z" fill="#2f2e41"/><path d="m154.016 143.553c.377 1.209 1.102 2.28 2.086 3.079s2.182 1.291 3.445 1.413c1.262.123 2.533-.129 3.653-.724 1.119-.594 2.038-1.506 2.641-2.619-4.953-6.462-.704-10.521 7.342-13.592.606-1.123.864-2.4.741-3.669-.124-1.269-.623-2.472-1.434-3.458-2.218-.283-4.471-.067-6.595.63-2.124.698-4.065 1.86-5.68 3.402l-.004.004-5.717 10.58c-.407.752-.659 1.578-.741 2.429s.007 1.71.263 2.525z" fill="#2f2e41"/><path d="m165.332 138.791c.757 0 1.371-1.05 1.371-2.344 0-1.295-.614-2.345-1.371-2.345-.756 0-1.37 1.05-1.37 2.345 0 1.294.614 2.344 1.37 2.344z" fill="#ffb8b8"/><path d="m169.416 132.622 11.771 5.321 2.157-4.751c-.371-1.736-1.15-3.36-2.271-4.739l-8.101-3.661z" fill="#2f2e41"/><path d="m197.709 237.455c2.888 0 5.23-2.336 5.23-5.218 0-2.883-2.342-5.219-5.23-5.219-2.889 0-5.231 2.336-5.231 5.219 0 2.882 2.342 5.218 5.231 5.218z" fill="#f81"/><path d="m29.7904 268.479c1.8879 0 3.4183-1.527 3.4183-3.41 0-1.884-1.5304-3.411-3.4183-3.411-1.8878 0-3.4182 1.527-3.4182 3.411 0 1.883 1.5304 3.41 3.4182 3.41z" fill="#ff6584"/><path d="m47.0605 282.845h-1.0461v38.833h1.0461z" fill="#3f3d56"/><path d="m46.5375 288.336c3.0397 0 5.5039-2.458 5.5039-5.491s-2.4642-5.492-5.5039-5.492-5.5038 2.459-5.5038 5.492 2.4641 5.491 5.5038 5.491z" fill="#3f3d56"/><path d="m46.5375 306.779s-.7863-16.874-16.9047-14.912z" fill="#3f3d56"/></g></svg>