<svg fill="none" height="279" viewBox="0 0 325 279" width="325" xmlns="http://www.w3.org/2000/svg" xmlns:xlink="http://www.w3.org/1999/xlink"><clipPath id="a"><path d="m0 0h325v279h-325z"/></clipPath><g clip-path="url(#a)"><path d="m95.5112 276.089c5.2168-4.421 8.3858-11.405 7.5548-18.204s-5.9781-13.05-12.6551-14.493c-6.6769-1.444-14.2883 2.552-16.3163 9.093-1.1161-12.61-2.4022-25.749-9.0879-36.489-6.0537-9.724-16.5388-16.682-27.9023-17.926-11.3634-1.245-23.3277 3.456-30.41474 12.451-7.086995 8.994-8.82221 22.071-3.85866 32.397 3.65646 7.607 10.393 13.269 17.4512 17.874 22.8075 14.758 50.1621 20.759 77.0308 16.9" fill="#f2f2f2"/><path d="m17.9268 201.787c9.3763 7.659 17.978 16.225 25.6808 25.573 12.0549 14.581 21.8098 30.929 28.925 48.474.5208 1.28-1.5517 1.837-2.0668.572-4.5247-11.093-10.1226-21.715-16.7135-31.713-10.2777-15.618-22.8694-29.574-37.3411-41.386-1.07-.874.4544-2.387 1.5156-1.52z" fill="#fff"/><path d="m99.1148 276.089c-5.2172-4.421-8.3862-11.405-7.5552-18.204.8311-6.799 5.9786-13.05 12.6554-14.493 6.677-1.444 14.288 2.552 16.316 9.093 1.117-12.61 2.403-25.749 9.088-36.489 6.054-9.724 16.539-16.682 27.903-17.926 11.363-1.245 23.327 3.456 30.414 12.451 7.087 8.994 8.823 22.071 3.859 32.397-3.656 7.607-10.393 13.269-17.451 17.874-22.808 14.758-50.162 20.759-77.031 16.9" fill="#f2f2f2"/><path d="m176.699 201.787c-9.376 7.659-17.978 16.225-25.681 25.573-12.055 14.581-21.809 30.929-28.925 48.474-.52 1.28 1.552 1.837 2.067.572 11.642-28.515 30.227-53.647 54.055-73.099 1.07-.874-.455-2.387-1.516-1.52z" fill="#fff"/><path d="m114.597 125.508c9.652 0 17.476-7.847 17.476-17.526 0-9.6795-7.824-17.5261-17.476-17.5261s-17.4764 7.8466-17.4764 17.5261c0 9.679 7.8244 17.526 17.4764 17.526z" fill="#f2f2f2"/><path d="m60.713 47.5672h120.406v6.6063h-105.0351c-6.1756 0-12.2908 1.2198-17.9964 3.5898-5.7056 2.3701-10.8898 5.8439-15.2567 10.2232-4.3668 4.3792-7.8308 9.5782-10.1942 15.3-2.3633 5.7217-3.5797 11.8543-3.5797 18.0475v75.055h-13.175c-.5824 0-1.1409-.232-1.5527-.645s-.6432-.973-.6432-1.557v-79.4592c0-6.1933 1.2164-12.3258 3.5797-18.0476 2.3634-5.7218 5.8274-10.9208 10.1942-15.3 4.3669-4.3793 9.5511-7.8531 15.2567-10.2231 5.7056-2.3701 11.8208-3.5899 17.9964-3.5899z" fill="#f2f2f2"/><path d="m83.8726 276.456v-100.35h29.3144v100.35c0 .674-.268 1.321-.743 1.798-.476.477-1.121.745-1.793.746h-24.2416c-.6726-.001-1.3174-.269-1.793-.746s-.7431-1.124-.7438-1.798z" fill="#3f3d56"/><path d="m7.48474 174.128v-81.5998c.01463-12.9901 5.16676-25.4439 14.32616-34.6293 9.1593-9.1855 21.5779-14.3523 34.5312-14.367h124.2129v133.4221h-170.2515c-.74733 0-1.46379-.299-1.99222-.828-.52843-.53-.82568-1.249-.82654-1.998zm171.94326-129.4654h-123.0859c-12.6544.0144-24.7864 5.062-33.7343 14.0354-8.948 8.9735-13.98126 21.1399-13.99556 33.8302v81.5998c.00049.449.17883.88.49589 1.198s.74695.497 1.19537.498h169.1245z" fill="#3f3d56"/><path d="m114.597 117.027c-2.691-.003-5.27-1.076-7.172-2.984-1.903-1.907-2.973-4.494-2.976-7.192v-72.93c0-.4497-.178-.8808-.496-1.1988-.317-.3179-.746-.4968-1.195-.4973h-39.4622c-.7473-.0008-1.4638-.2989-1.9922-.8289-.5284-.5299-.8257-1.2484-.8265-1.9978v-26.57145c.0008-.74944.2981-1.46793.8265-1.997859.5284-.52993 1.2449-.82802317 1.9922-.828891h58.6302c.747.00085738 1.463.29895 1.992.828882.528.529928.825 1.248428.826 1.997868v104.02425c-.003 2.698-1.073 5.285-2.975 7.192-1.903 1.908-4.482 2.981-7.172 2.984z" fill="#f81"/><path d="m185.065 42.4012c8.505-.0179 16.668 3.353 22.694 9.3711 6.026 6.018 9.422 14.1903 9.44 22.719v92.8927h63.14c2.536-.006 4.971 1 6.768 2.795 1.797 1.794 2.81 4.232 2.815 6.775h-136.99v-102.4627c.017-8.5287 3.413-16.701 9.439-22.719 6.026-6.0181 14.19-9.389 22.694-9.3711z" fill="#3f3d56"/><path d="m177.354 95.2996 6.654 27.5644 130.159-31.5985-6.654-27.5642c-.08-.337-.244-.6482-.477-.9047-.232-.2565-.525-.45-.852-.5624-.242-.0851-.497-.1237-.752-.1135l-75.238-39.0668c-.441-.2257-.947-.286-1.429-.17-.481.116-.905.4007-1.196.8028l-36.26 50.7083-13.669 19.1217c-.025.0335-.043.072-.051.1128-.009.0408-.009.083 0 .1237-.278.4643-.362 1.0199-.235 1.5464z" fill="#fff"/><path d="m177.589 93.7532c.007.0358.02.0701.04.1007s.045.0571.075.0778c.035.0243.075.0411.117.0494s.085.008.127-.001c.068-.0182.128-.0596.169-.1172l.047-.0652.711-.9982 12.927-18.071 36.249-50.6966c.207-.2873.51-.4907.853-.5733.344-.0826.705-.0389 1.02.1231l74.654 38.7641.67.3487c.027.0114.055.0212.083.0292.051-.0092.102-.0141.153-.0147.07-.0235.129-.073.164-.1383.018-.0345.029-.0721.033-.1109.003-.0388-.001-.0779-.012-.1151-.012-.0372-.03-.0718-.055-.1018s-.055-.0547-.09-.0729l-.092-.0493-75.238-39.0668c-.44-.2257-.947-.286-1.429-.17-.481.116-.905.4007-1.195.8028l-36.261 50.7083-13.669 19.1217c-.025.0335-.042.072-.051.1128s-.009.083 0 .1237z" fill="#3f3d56"/><path d="m216.68 96.5639 2.897.3223 21.503 2.3888 14.255 1.583.842.093 17.788-13.9324.681-.5337 4.201-3.2905 14.947-11.7063.09-.8222 5.316-48.1193c.073-.6625-.12-1.3269-.535-1.8474s-1.019-.8547-1.68-.9293l-70.951-7.8819c-.66-.0724-1.323.1207-1.842.5371-.519.4163-.852 1.022-.927 1.6842l-3.749 33.9422-2.079 18.8182-1.861 16.8352-.862 7.8183-.252 2.2647c-.072.6628.122 1.3272.537 1.8475.416.5203 1.02.8542 1.681.9285z" fill="#e6e6e6"/><path d="m236.177 54.3854 30.734 3.4136 10.899 1.2102c.482.0535.969.0113 1.434-.124.464-.1352.898-.3611 1.276-.6645s.693-.6786.926-1.1039c.234-.4254.381-.8928.435-1.3753.053-.4826.011-.971-.124-1.4373s-.36-.9013-.663-1.2804c-.302-.379-.676-.6945-1.101-.9286-.424-.234-.89-.382-1.371-.4355l-13.556-1.5056-28.075-3.1218c-.972-.1077-1.947.1761-2.71.7891-.763.6129-1.253 1.5048-1.361 2.4795-.108.9748.175 1.9526.786 2.7185.61.7659 1.5 1.2573 2.471 1.366z" fill="#fff"/><path d="m234.428 68.0193c.079.0143.158.0285.239.0363l35.677 3.9636 5.956.6631c.973.1078 1.948-.1761 2.711-.7892.764-.6132 1.253-1.5054 1.361-2.4803.107-.975-.176-1.9529-.787-2.7186-.612-.7657-1.501-1.2564-2.474-1.3643l-8.613-.9556-28.261-3.1404-4.755-.5285c-.952-.1064-1.907.1623-2.664.7492-.757.587-1.257 1.4463-1.394 2.3961-.137.9499.1 1.9159.661 2.6938.56.778 1.4 1.3068 2.343 1.4748z" fill="#fff"/><path d="m230.39 80.1087c.292.4868.692.8994 1.17 1.2058.477.3065 1.018.4985 1.581.5611l14.623 1.6241 26.044 2.8935.005-.0014.833.0931 4.201-3.2905c.026-.2499.026-.5019.001-.7519-.089-.8393-.46-1.6232-1.054-2.2219-.593-.5987-1.372-.9764-2.208-1.0706l-3.618-.4031-14.351-1.5927-10.327-1.1485-13.338-1.4824c-.684-.0759-1.375.0415-1.995.3388-.621.2974-1.146.7629-1.517 1.3439-.37.5811-.571 1.2544-.58 1.9441-.009.6896.174 1.368.53 1.9585z" fill="#fff"/><path d="m250.929 37.7199 7.647.8493 3.377.3762 5.102.5662c.972.1079 1.948-.176 2.711-.7892.764-.6131 1.253-1.5053 1.36-2.4803.108-.975-.175-1.9529-.787-2.7186-.611-.7657-1.501-1.2564-2.473-1.3642l-16.123-1.7896c-.972-.1084-1.947.1749-2.71.7875-.764.6127-1.254 1.5044-1.362 2.4791s.175 1.9525.786 2.7183 1.5 1.2569 2.472 1.3653z" fill="#fff"/><path d="m188.401 58.1924 9.323 38.6212 15.56 2.9671 14.393 2.7483 15.443 2.947 4.935.941c.289.055.586.048.872-.022.285-.069.553-.199.785-.38l3.959-3.101 2.506-1.963 17.787-13.9324-11.309-46.8526c-.112-.4661-.356-.89-.702-1.2206-.303-.2926-.676-.5038-1.082-.6142s-.834-.1164-1.243-.0174l-69.38 16.8432c-.646.1573-1.204.5653-1.55 1.1345-.346.5691-.453 1.2528-.297 1.9009z" fill="#f81"/><g fill="#fff"><path d="m209.778 88.917c.231.9527.829 1.7746 1.664 2.2853.834.5107 1.837.6684 2.787.4385l40.711-9.8832c.95-.232 1.769-.8321 2.278-1.6689s.667-1.8419.438-2.795c-.01-.0472-.023-.0938-.04-.1394-.26-.9189-.864-1.7012-1.686-2.183-.823-.4817-1.799-.6256-2.725-.4014l-40.711 9.8832c-.95.2315-1.769.8316-2.279 1.6685-.509.8369-.666 1.8423-.437 2.7954z"/><path d="m213.284 99.7807 14.393 2.7483 30.49-7.4022c.951-.2307 1.771-.8306 2.28-1.6678.51-.8371.667-1.8429.436-2.796-.23-.9532-.828-1.7756-1.663-2.2865-.834-.5108-1.837-.6681-2.788-.4374l-40.71 9.8832c-.851.2049-1.601.7086-2.113 1.4199-.123.17-.232.3501-.325.5385z"/><path d="m243.12 105.476 4.935.941c.289.055.586.048.872-.022.285-.069.553-.199.785-.38l3.959-3.101z"/><path d="m217.981 68.2075c.231.9527.829 1.7747 1.664 2.2853.834.5107 1.837.6684 2.787.4386l15.769-3.828c.949-.232 1.768-.8322 2.278-1.669.509-.8367.666-1.8418.438-2.7949-.123-.5121-.355-.9916-.68-1.4056-.436-.5596-1.023-.9815-1.692-1.2152-.669-.2338-1.391-.2696-2.08-.1031l-15.768 3.8281c-.95.2308-1.77.8308-2.28 1.6679-.509.8371-.666 1.8428-.436 2.7959z"/><path d="m227.676 102.529 15.446 2.947 4.933.942c.288.054.585.046.871-.023.285-.069.553-.198.785-.379l3.961-3.101-1.39.337-2.934 2.296c-.166.129-.357.221-.561.271-.204.049-.416.055-.623.016l-3.652-.696-15.446-2.948zm46.136-16.1349.15.6229.685-.5342zm-46.136 16.1349 15.446 2.947 4.933.942c.288.054.585.046.871-.023.285-.069.553-.198.785-.379l3.961-3.101-1.39.337-2.934 2.296c-.166.129-.357.221-.561.271-.204.049-.416.055-.623.016l-3.652-.696-15.446-2.948zm0 0 15.446 2.947 4.933.942c.288.054.585.046.871-.023.285-.069.553-.198.785-.379l3.961-3.101-1.39.337-2.934 2.296c-.166.129-.357.221-.561.271-.204.049-.416.055-.623.016l-3.652-.696-15.446-2.948zm-50.322-7.2294 17.429 72.2004c.129.534.464.994.932 1.28.467.286 1.029.375 1.561.246l126.145-30.624c.532-.13.991-.466 1.276-.934.285-.469.373-1.032.245-1.566l-17.429-72.2007c-.08-.3371-.244-.6483-.477-.9047-.232-.2565-.525-.45-.852-.5625-.242-.0851-.497-.1236-.752-.1135-.298.0087-.59.0857-.854.2252-.122.058-.236.1295-.342.2132l-10.353 8.107-15.035 11.7782-5.037 3.9456.001.0042-.005.0011-18.471 14.4609-3.054 2.396-2.934 2.296c-.166.129-.357.221-.561.271-.204.049-.416.055-.623.016l-3.652-.696-15.446-2.948-15.459-2.9486-33.859-6.4618c-.289-.0573-.587-.0509-.873.0189-.385.0944-.735.2977-1.008.5857-.104.1131-.197.2364-.278.368-.278.4643-.362 1.0199-.235 1.5464zm50.322 7.2294 15.446 2.947 4.933.942c.288.054.585.046.871-.023.285-.069.553-.198.785-.379l3.961-3.101-1.39.337-2.934 2.296c-.166.129-.357.221-.561.271-.204.049-.416.055-.623.016l-3.652-.696-15.446-2.948zm0 0 15.446 2.947 4.933.942c.288.054.585.046.871-.023.285-.069.553-.198.785-.379l3.961-3.101-1.39.337-2.934 2.296c-.166.129-.357.221-.561.271-.204.049-.416.055-.623.016l-3.652-.696-15.446-2.948zm0 0 15.446 2.947 4.933.942c.288.054.585.046.871-.023.285-.069.553-.198.785-.379l3.961-3.101-1.39.337-2.934 2.296c-.166.129-.357.221-.561.271-.204.049-.416.055-.623.016l-3.652-.696-15.446-2.948z"/></g><path d="m227.676 102.529 15.446 2.947 4.933.942c.288.054.585.046.871-.023.285-.069.553-.198.785-.379l3.961-3.101-1.39.337-2.934 2.296c-.166.129-.357.221-.561.271-.204.049-.416.055-.623.016l-3.652-.696-15.446-2.948zm46.136-16.1349.15.6229.685-.5342zm-46.136 16.1349 15.446 2.947 4.933.942c.288.054.585.046.871-.023.285-.069.553-.198.785-.379l3.961-3.101-1.39.337-2.934 2.296c-.166.129-.357.221-.561.271-.204.049-.416.055-.623.016l-3.652-.696-15.446-2.948zm0 0 15.446 2.947 4.933.942c.288.054.585.046.871-.023.285-.069.553-.198.785-.379l3.961-3.101-1.39.337-2.934 2.296c-.166.129-.357.221-.561.271-.204.049-.416.055-.623.016l-3.652-.696-15.446-2.948zm-49.512-8.7313.076.0577c.013-.0211.035-.04.052-.062.171-.1783.383-.3113.618-.387.235-.0758.484-.092.727-.0471l33.648 6.419 14.391 2.7507 15.446 2.947 4.933.942c.288.054.585.046.871-.023.285-.069.553-.198.785-.379l3.961-3.101-1.39.337-2.934 2.296c-.166.129-.357.221-.561.271-.204.049-.416.055-.623.016l-3.652-.696-15.446-2.948-15.459-2.9486-33.859-6.4618c-.289-.0573-.587-.0509-.873.0189zm-.81 1.5018 17.429 72.2005c.129.534.464.994.932 1.28.467.286 1.029.375 1.561.246l126.145-30.624c.532-.129.991-.466 1.276-.934.285-.469.373-1.032.245-1.566l-17.429-72.2007c-.08-.337-.244-.6482-.477-.9047-.232-.2565-.525-.45-.852-.5624-.242-.0851-.497-.1237-.752-.1135-.298.0086-.59.0856-.854.2251-.122.058-.236.1295-.342.2132l-10.353 8.107-15.035 11.7782-5.037 3.9456.001.0043-.005.001-18.471 14.4609-3.054 2.396-2.934 2.296c-.166.129-.357.221-.561.271-.204.049-.416.055-.623.016l-3.652-.696-15.446-2.948-15.459-2.9486-33.859-6.4618c-.289-.0573-.587-.0509-.873.0189-.385.0944-.735.2976-1.008.5857-.104.1131-.197.2364-.278.368-.278.4643-.362 1.0199-.235 1.5463zm.575-.1395c-.051-.2128-.055-.4345-.01-.6487.045-.2143.137-.4158.27-.5897.012-.0256.03-.0482.051-.0662.013-.0211.035-.04.052-.062.171-.1783.383-.3113.618-.387.235-.0758.484-.092.727-.0471l33.648 6.419 14.391 2.7507 15.446 2.947 4.933.942c.288.054.585.046.871-.023.285-.069.553-.198.785-.379l3.961-3.101 2.506-1.963 17.784-13.935.685-.5342 4.198-3.2889 14.95-11.708 10.808-8.4642c.164-.1285.354-.2204.556-.2697.057-.0139.114-.0233.172-.0283.051-.0092.102-.0141.153-.0147.173-.0016.345.0265.508.0831.233.0813.442.2198.608.4028.166.1829.284.4046.342.6449l17.429 72.2012c.046.189.054.385.024.578-.03.192-.097.377-.198.543s-.234.311-.391.425c-.157.115-.335.197-.524.243l-126.144 30.624c-.381.092-.782.028-1.116-.177s-.573-.534-.664-.916zm49.747 7.369 15.446 2.947 4.933.942c.288.054.585.046.871-.023.285-.069.553-.198.785-.379l3.961-3.101-1.39.337-2.934 2.296c-.166.129-.357.221-.561.271-.204.049-.416.055-.623.016l-3.652-.696-15.446-2.948zm0 0 15.446 2.947 4.933.942c.288.054.585.046.871-.023.285-.069.553-.198.785-.379l3.961-3.101-1.39.337-2.934 2.296c-.166.129-.357.221-.561.271-.204.049-.416.055-.623.016l-3.652-.696-15.446-2.948zm0 0 15.446 2.947 4.933.942c.288.054.585.046.871-.023.285-.069.553-.198.785-.379l3.961-3.101-1.39.337-2.934 2.296c-.166.129-.357.221-.561.271-.204.049-.416.055-.623.016l-3.652-.696-15.446-2.948z" fill="#3f3d56"/><path d="m290.543 124.217c-.284-1.183-.088-2.431.544-3.47.632-1.038 1.649-1.783 2.828-2.071l15.921-3.865c1.178-.282 2.42-.084 3.453.551 1.032.634 1.772 1.653 2.057 2.834.285 1.18.092 2.426-.537 3.464s-1.643 1.783-2.819 2.073l-15.921 3.865c-1.18.285-2.424.089-3.46-.544-1.036-.634-1.779-1.654-2.066-2.837z" fill="#f81"/><path d="m114.597 110.809c2.179 0 3.946-1.772 3.946-3.958s-1.767-3.957-3.946-3.957c-2.18 0-3.946 1.771-3.946 3.957s1.766 3.958 3.946 3.958z" fill="#fff"/></g></svg>